<?xml version="1.0" standalone="no"?>
<!DOCTYPE svg PUBLIC "-//W3C//DTD SVG 20010904//EN"
 "http://www.w3.org/TR/2001/REC-SVG-20010904/DTD/svg10.dtd">
<svg version="1.0" xmlns="http://www.w3.org/2000/svg"
 width="331.000000pt" height="94.000000pt" viewBox="0 0 331.000000 94.000000"
 preserveAspectRatio="xMidYMid meet">

<g transform="translate(0.000000,94.000000) scale(0.100000,-0.100000)"
fill="#000000" stroke="none">
<path d="M70 585 c0 -183 4 -285 10 -285 6 0 10 102 10 285 0 183 -4 285 -10
285 -6 0 -10 -102 -10 -285z"/>
<path d="M150 585 c0 -183 4 -285 10 -285 6 0 10 102 10 285 0 183 -4 285 -10
285 -6 0 -10 -102 -10 -285z"/>
<path d="M190 585 l0 -285 30 0 30 0 0 285 0 285 -30 0 -30 0 0 -285z"/>
<path d="M270 585 l0 -285 30 0 30 0 0 285 0 285 -30 0 -30 0 0 -285z"/>
<path d="M350 585 c0 -183 4 -285 10 -285 6 0 10 102 10 285 0 183 -4 285 -10
285 -6 0 -10 -102 -10 -285z"/>
<path d="M390 585 l0 -285 30 0 30 0 0 285 0 285 -30 0 -30 0 0 -285z"/>
<path d="M470 585 c0 -183 4 -285 10 -285 6 0 10 102 10 285 0 183 -4 285 -10
285 -6 0 -10 -102 -10 -285z"/>
<path d="M510 585 l0 -285 30 0 30 0 0 285 0 285 -30 0 -30 0 0 -285z"/>
<path d="M630 585 c0 -183 4 -285 10 -285 6 0 10 102 10 285 0 183 -4 285 -10
285 -6 0 -10 -102 -10 -285z"/>
<path d="M670 585 c0 -183 4 -285 10 -285 6 0 10 102 10 285 0 183 -4 285 -10
285 -6 0 -10 -102 -10 -285z"/>
<path d="M710 585 c0 -183 4 -285 10 -285 6 0 10 102 10 285 0 183 -4 285 -10
285 -6 0 -10 -102 -10 -285z"/>
<path d="M750 585 l0 -285 30 0 30 0 0 285 0 285 -30 0 -30 0 0 -285z"/>
<path d="M830 585 c0 -183 4 -285 10 -285 6 0 10 102 10 285 0 183 -4 285 -10
285 -6 0 -10 -102 -10 -285z"/>
<path d="M870 585 c0 -183 4 -285 10 -285 6 0 10 102 10 285 0 183 -4 285 -10
285 -6 0 -10 -102 -10 -285z"/>
<path d="M950 585 l0 -285 30 0 30 0 0 285 0 285 -30 0 -30 0 0 -285z"/>
<path d="M1030 585 c0 -183 4 -285 10 -285 6 0 10 102 10 285 0 183 -4 285
-10 285 -6 0 -10 -102 -10 -285z"/>
<path d="M1110 585 c0 -183 4 -285 10 -285 6 0 10 102 10 285 0 183 -4 285
-10 285 -6 0 -10 -102 -10 -285z"/>
<path d="M1150 585 c0 -183 4 -285 10 -285 6 0 10 102 10 285 0 183 -4 285
-10 285 -6 0 -10 -102 -10 -285z"/>
<path d="M1190 585 l0 -285 30 0 30 0 0 285 0 285 -30 0 -30 0 0 -285z"/>
<path d="M1270 585 l0 -285 30 0 30 0 0 285 0 285 -30 0 -30 0 0 -285z"/>
<path d="M1350 585 l0 -285 30 0 30 0 0 285 0 285 -30 0 -30 0 0 -285z"/>
<path d="M1430 585 c0 -183 4 -285 10 -285 6 0 10 102 10 285 0 183 -4 285
-10 285 -6 0 -10 -102 -10 -285z"/>
<path d="M1470 585 c0 -183 4 -285 10 -285 6 0 10 102 10 285 0 183 -4 285
-10 285 -6 0 -10 -102 -10 -285z"/>
<path d="M1550 585 l0 -285 30 0 30 0 0 285 0 285 -30 0 -30 0 0 -285z"/>
<path d="M1630 585 c0 -183 4 -285 10 -285 6 0 10 102 10 285 0 183 -4 285
-10 285 -6 0 -10 -102 -10 -285z"/>
<path d="M1670 585 l0 -285 30 0 30 0 0 285 0 285 -30 0 -30 0 0 -285z"/>
<path d="M1750 585 c0 -183 4 -285 10 -285 6 0 10 102 10 285 0 183 -4 285
-10 285 -6 0 -10 -102 -10 -285z"/>
<path d="M1790 585 c0 -183 4 -285 10 -285 6 0 10 102 10 285 0 183 -4 285
-10 285 -6 0 -10 -102 -10 -285z"/>
<path d="M1870 585 c0 -183 4 -285 10 -285 6 0 10 102 10 285 0 183 -4 285
-10 285 -6 0 -10 -102 -10 -285z"/>
<path d="M1910 585 l0 -285 30 0 30 0 0 285 0 285 -30 0 -30 0 0 -285z"/>
<path d="M1990 585 c0 -183 4 -285 10 -285 6 0 10 102 10 285 0 183 -4 285
-10 285 -6 0 -10 -102 -10 -285z"/>
<path d="M2030 585 l0 -285 30 0 30 0 0 285 0 285 -30 0 -30 0 0 -285z"/>
<path d="M2110 585 c0 -183 4 -285 10 -285 6 0 10 102 10 285 0 183 -4 285
-10 285 -6 0 -10 -102 -10 -285z"/>
<path d="M2190 585 c0 -183 4 -285 10 -285 6 0 10 102 10 285 0 183 -4 285
-10 285 -6 0 -10 -102 -10 -285z"/>
<path d="M2230 585 l0 -285 30 0 30 0 0 285 0 285 -30 0 -30 0 0 -285z"/>
<path d="M2310 585 c0 -183 4 -285 10 -285 6 0 10 102 10 285 0 183 -4 285
-10 285 -6 0 -10 -102 -10 -285z"/>
<path d="M2350 585 l0 -285 30 0 30 0 0 285 0 285 -30 0 -30 0 0 -285z"/>
<path d="M2430 585 c0 -183 4 -285 10 -285 6 0 10 102 10 285 0 183 -4 285
-10 285 -6 0 -10 -102 -10 -285z"/>
<path d="M2510 585 l0 -285 30 0 30 0 0 285 0 285 -30 0 -30 0 0 -285z"/>
<path d="M2590 585 c0 -183 4 -285 10 -285 6 0 10 102 10 285 0 183 -4 285
-10 285 -6 0 -10 -102 -10 -285z"/>
<path d="M2630 585 c0 -183 4 -285 10 -285 6 0 10 102 10 285 0 183 -4 285
-10 285 -6 0 -10 -102 -10 -285z"/>
<path d="M2670 585 l0 -285 30 0 30 0 0 285 0 285 -30 0 -30 0 0 -285z"/>
<path d="M2750 585 c0 -183 4 -285 10 -285 6 0 10 102 10 285 0 183 -4 285
-10 285 -6 0 -10 -102 -10 -285z"/>
<path d="M2830 585 c0 -183 4 -285 10 -285 6 0 10 102 10 285 0 183 -4 285
-10 285 -6 0 -10 -102 -10 -285z"/>
<path d="M2870 585 l0 -285 30 0 30 0 0 285 0 285 -30 0 -30 0 0 -285z"/>
<path d="M2950 585 c0 -183 4 -285 10 -285 6 0 10 102 10 285 0 183 -4 285
-10 285 -6 0 -10 -102 -10 -285z"/>
<path d="M3030 585 c0 -183 4 -285 10 -285 6 0 10 102 10 285 0 183 -4 285
-10 285 -6 0 -10 -102 -10 -285z"/>
<path d="M3070 585 l0 -285 30 0 30 0 0 285 0 285 -30 0 -30 0 0 -285z"/>
<path d="M3150 585 l0 -285 30 0 30 0 0 285 0 285 -30 0 -30 0 0 -285z"/>
<path d="M3230 585 c0 -183 4 -285 10 -285 6 0 10 102 10 285 0 183 -4 285
-10 285 -6 0 -10 -102 -10 -285z"/>
<path d="M1270 165 l0 -65 50 0 c28 0 50 5 50 10 0 6 -18 10 -40 10 -33 0 -40
3 -40 19 0 15 8 21 38 24 l37 4 -37 1 c-31 2 -38 6 -38 22 0 16 7 20 34 20 19
0 38 5 41 10 4 6 -13 10 -44 10 l-51 0 0 -65z"/>
<path d="M1390 165 l0 -65 40 0 c22 0 40 5 40 10 0 6 -13 10 -30 10 -30 0 -30
1 -30 55 0 30 -4 55 -10 55 -6 0 -10 -28 -10 -65z"/>
<path d="M1550 165 c0 -37 4 -65 10 -65 6 0 10 14 10 30 0 28 3 30 35 30 32 0
35 -2 35 -30 0 -16 5 -30 10 -30 6 0 10 26 10 59 0 33 -4 63 -10 66 -6 4 -10
-5 -10 -19 0 -23 -4 -26 -35 -26 -31 0 -35 3 -35 25 0 14 -4 25 -10 25 -6 0
-10 -28 -10 -65z"/>
<path d="M1709 203 c-29 -75 -37 -103 -29 -103 5 0 12 9 15 20 9 28 61 28 70
0 3 -11 10 -20 16 -20 7 0 1 21 -38 118 -8 20 -23 14 -34 -15z m41 -45 c0 -4
-9 -8 -21 -8 -15 0 -19 4 -15 16 3 9 6 21 6 27 1 13 30 -22 30 -35z"/>
<path d="M1800 165 l0 -65 39 0 c47 0 71 22 54 50 -7 10 -9 28 -6 40 7 27 -10
40 -54 40 l-33 0 0 -65z m76 34 c8 -13 -13 -29 -38 -29 -11 0 -18 8 -18 20 0
15 7 20 24 20 14 0 28 -5 32 -11z m2 -61 c3 -14 -3 -18 -27 -18 -25 0 -31 4
-31 21 0 16 5 20 27 17 17 -2 29 -10 31 -20z"/>
<path d="M1933 165 c0 -38 2 -53 4 -32 2 20 2 52 0 70 -2 17 -4 1 -4 -38z"/>
<path d="M1970 165 l0 -65 39 0 c47 0 71 22 54 50 -7 10 -9 28 -6 40 7 27 -10
40 -54 40 l-33 0 0 -65z m76 34 c8 -13 -13 -29 -38 -29 -11 0 -18 8 -18 20 0
15 7 20 24 20 14 0 28 -5 32 -11z m2 -61 c3 -14 -3 -18 -27 -18 -25 0 -31 4
-31 21 0 16 5 20 27 17 17 -2 29 -10 31 -20z"/>
<path d="M1498 143 c6 -2 18 -2 25 0 6 3 1 5 -13 5 -14 0 -19 -2 -12 -5z"/>
</g>
</svg>
